<svg xmlns="http://www.w3.org/2000/svg" width="165" viewBox="0 0 165 82.5" height="82.5" version="1.0"><defs><clipPath id="a"><path d="M 0.496094 0 L 164.503906 0 L 164.503906 82.003906 L 0.496094 82.003906 Z M 0.496094 0"/></clipPath><clipPath id="b"><path d="M 8.699219 23.605469 L 156.300781 23.605469 L 156.300781 47 L 8.699219 47 Z M 8.699219 23.605469"/></clipPath><clipPath id="c"><path d="M 61 52 L 67 52 L 67 58.644531 L 61 58.644531 Z M 61 52"/></clipPath><clipPath id="d"><path d="M 101 52 L 107 52 L 107 58.644531 L 101 58.644531 Z M 101 52"/></clipPath><clipPath id="e"><path d="M 152 52 L 156.300781 52 L 156.300781 57 L 152 57 Z M 152 52"/></clipPath></defs><g clip-path="url(#a)" fill="#FFF"><path d="M 0.496094 0 L 164.503906 0 L 164.503906 171.460938 L 0.496094 171.460938 Z M 0.496094 0"/><path d="M 0.496094 0 L 164.503906 0 L 164.503906 82.003906 L 0.496094 82.003906 Z M 0.496094 0"/><path d="M 0.496094 0 L 164.503906 0 L 164.503906 82.003906 L 0.496094 82.003906 Z M 0.496094 0"/></g><g clip-path="url(#b)"><path fill="#5A3699" d="M 156.300781 36.1875 C 156.25 34.402344 155.597656 32.996094 154.339844 31.960938 C 153.082031 30.925781 151.359375 30.410156 149.175781 30.410156 C 148.089844 30.398438 147.027344 30.554688 145.992188 30.871094 C 145.039062 31.152344 144.199219 31.628906 143.464844 32.296875 C 142.726562 32.96875 142.171875 33.761719 141.796875 34.6875 C 141.339844 35.800781 141.089844 36.960938 141.050781 38.167969 C 140.964844 39.367188 141.085938 40.546875 141.414062 41.703125 C 141.675781 42.640625 142.136719 43.46875 142.800781 44.183594 C 143.460938 44.898438 144.246094 45.417969 145.160156 45.75 C 146.140625 46.109375 147.15625 46.277344 148.203125 46.261719 C 149.152344 46.269531 150.085938 46.136719 151 45.859375 C 151.855469 45.597656 152.644531 45.199219 153.367188 44.667969 C 154.0625 44.160156 154.640625 43.546875 155.105469 42.820312 C 155.578125 42.082031 155.894531 41.277344 156.054688 40.410156 L 151.683594 40.410156 C 151.574219 41.203125 151.191406 41.824219 150.539062 42.277344 C 149.875 42.726562 149.144531 42.945312 148.34375 42.929688 C 147.5 42.929688 146.777344 42.535156 146.167969 41.742188 C 145.5625 40.949219 145.300781 39.726562 145.386719 38.070312 C 145.410156 37.363281 145.535156 36.675781 145.765625 36.007812 C 145.941406 35.503906 146.203125 35.050781 146.558594 34.652344 C 146.863281 34.320312 147.230469 34.078125 147.660156 33.925781 C 148.082031 33.78125 148.519531 33.710938 148.96875 33.710938 C 149.726562 33.683594 150.40625 33.90625 151.003906 34.371094 C 151.578125 34.84375 151.886719 35.453125 151.9375 36.195312 L 156.300781 36.195312 Z M 140.746094 26.5 C 140.746094 26.121094 140.675781 25.761719 140.53125 25.414062 C 140.390625 25.066406 140.1875 24.761719 139.921875 24.496094 C 139.660156 24.230469 139.355469 24.023438 139.011719 23.878906 C 138.664062 23.738281 138.304688 23.664062 137.933594 23.664062 C 137.558594 23.664062 137.203125 23.738281 136.855469 23.878906 C 136.511719 24.023438 136.207031 24.230469 135.945312 24.496094 C 135.679688 24.761719 135.476562 25.066406 135.332031 25.414062 C 135.191406 25.761719 135.121094 26.121094 135.121094 26.5 C 135.121094 26.875 135.191406 27.234375 135.332031 27.582031 C 135.476562 27.929688 135.679688 28.238281 135.945312 28.503906 C 136.207031 28.769531 136.511719 28.972656 136.855469 29.117188 C 137.203125 29.261719 137.558594 29.332031 137.933594 29.332031 C 138.304688 29.332031 138.664062 29.261719 139.011719 29.117188 C 139.355469 28.972656 139.660156 28.769531 139.921875 28.503906 C 140.1875 28.238281 140.390625 27.929688 140.53125 27.582031 C 140.675781 27.234375 140.746094 26.875 140.746094 26.5 Z M 140.746094 26.5 C 140.746094 26.121094 140.675781 25.761719 140.53125 25.414062 C 140.390625 25.066406 140.1875 24.761719 139.921875 24.496094 C 139.660156 24.230469 139.355469 24.023438 139.011719 23.878906 C 138.664062 23.738281 138.304688 23.664062 137.933594 23.664062 C 137.558594 23.664062 137.203125 23.738281 136.855469 23.878906 C 136.511719 24.023438 136.207031 24.230469 135.945312 24.496094 C 135.679688 24.761719 135.476562 25.066406 135.332031 25.414062 C 135.191406 25.761719 135.121094 26.121094 135.121094 26.5 C 135.121094 26.875 135.191406 27.234375 135.332031 27.582031 C 135.476562 27.929688 135.679688 28.238281 135.945312 28.503906 C 136.207031 28.769531 136.511719 28.972656 136.855469 29.117188 C 137.203125 29.261719 137.558594 29.332031 137.933594 29.332031 C 138.304688 29.332031 138.664062 29.261719 139.011719 29.117188 C 139.355469 28.972656 139.660156 28.769531 139.921875 28.503906 C 140.1875 28.238281 140.390625 27.929688 140.53125 27.582031 C 140.675781 27.234375 140.746094 26.875 140.746094 26.5 Z M 135.417969 30.804688 L 134.632812 45.859375 L 138.960938 45.859375 L 139.746094 30.804688 Z M 133.855469 34.503906 L 134.066406 30.441406 L 133.488281 30.441406 C 133.058594 30.441406 132.625 30.457031 132.191406 30.492188 C 131.75 30.523438 131.324219 30.617188 130.914062 30.769531 C 130.476562 30.933594 130.066406 31.15625 129.6875 31.429688 C 129.242188 31.769531 128.851562 32.164062 128.519531 32.621094 L 128.613281 30.796875 L 124.53125 30.796875 L 123.746094 45.851562 L 128.070312 45.851562 L 128.472656 38.027344 C 128.597656 35.605469 129.996094 34.394531 132.664062 34.394531 C 133.0625 34.394531 133.457031 34.429688 133.847656 34.492188 Z M 122.441406 30.804688 L 113.425781 30.804688 L 113.679688 27.972656 L 109.355469 27.972656 L 108.605469 40.253906 C 108.558594 41.042969 108.644531 41.8125 108.863281 42.566406 C 109.074219 43.292969 109.4375 43.933594 109.953125 44.484375 C 110.523438 45.074219 111.195312 45.515625 111.964844 45.804688 C 112.945312 46.164062 113.957031 46.328125 115.003906 46.300781 C 116.035156 46.320312 117.042969 46.15625 118.015625 45.804688 C 118.820312 45.511719 119.535156 45.070312 120.160156 44.484375 C 120.726562 43.9375 121.15625 43.300781 121.449219 42.566406 C 121.742188 41.835938 121.90625 41.078125 121.945312 40.289062 L 122.171875 35.964844 L 118.132812 35.964844 L 117.933594 39.894531 C 117.882812 40.839844 117.640625 41.566406 117.210938 42.074219 C 116.777344 42.582031 116.132812 42.835938 115.273438 42.832031 C 114.390625 42.832031 113.769531 42.574219 113.417969 42.058594 C 113.0625 41.539062 112.910156 40.808594 112.957031 39.859375 L 113.28125 33.652344 L 122.289062 33.652344 L 122.4375 30.820312 Z M 106.730469 35.425781 C 106.785156 34.683594 106.6875 33.964844 106.433594 33.265625 C 106.207031 32.660156 105.855469 32.136719 105.382812 31.695312 C 104.898438 31.261719 104.34375 30.941406 103.726562 30.738281 C 103.023438 30.507812 102.304688 30.398438 101.566406 30.410156 C 100.25 30.410156 99.152344 30.632812 98.28125 31.085938 C 97.398438 31.535156 96.6875 32.175781 96.148438 33.011719 L 96.261719 30.796875 L 92.117188 30.796875 L 91.339844 45.859375 L 95.664062 45.859375 L 96.113281 37.242188 C 96.234375 34.933594 97.425781 33.777344 99.683594 33.773438 C 100.714844 33.773438 101.433594 33.976562 101.832031 34.382812 C 102.234375 34.789062 102.402344 35.574219 102.34375 36.742188 L 101.867188 45.855469 L 106.191406 45.855469 L 106.738281 35.421875 Z M 89.976562 39.390625 C 90.289062 33.402344 87.871094 30.410156 82.730469 30.410156 C 80.183594 30.410156 78.1875 31.101562 76.742188 32.488281 C 75.300781 33.875 74.515625 35.734375 74.398438 38.070312 C 74.109375 43.53125 76.707031 46.261719 82.1875 46.261719 C 83.847656 46.296875 85.382812 45.878906 86.796875 45.003906 C 88.152344 44.144531 89.105469 42.957031 89.652344 41.4375 L 85.183594 41.4375 C 84.953125 41.984375 84.570312 42.382812 84.039062 42.636719 C 83.445312 42.949219 82.8125 43.097656 82.140625 43.089844 C 81.058594 43.089844 80.210938 42.753906 79.597656 42.078125 C 78.984375 41.402344 78.671875 40.507812 78.65625 39.394531 L 89.976562 39.394531 Z M 85.636719 36.878906 L 78.929688 36.878906 C 79.082031 35.820312 79.484375 35.007812 80.136719 34.433594 C 80.800781 33.847656 81.574219 33.5625 82.457031 33.578125 C 83.304688 33.5625 84.054688 33.832031 84.703125 34.386719 C 85.335938 34.925781 85.644531 35.757812 85.636719 36.882812 Z M 69.085938 36.183594 L 73.453125 36.183594 C 73.402344 34.402344 72.746094 32.992188 71.492188 31.960938 C 70.234375 30.925781 68.511719 30.410156 66.324219 30.410156 C 65.242188 30.398438 64.179688 30.550781 63.140625 30.871094 C 62.191406 31.152344 61.351562 31.628906 60.617188 32.296875 C 59.882812 32.964844 59.328125 33.761719 58.953125 34.683594 C 58.492188 35.800781 58.246094 36.960938 58.207031 38.167969 C 58.117188 39.367188 58.238281 40.542969 58.566406 41.699219 C 58.832031 42.640625 59.292969 43.464844 59.953125 44.179688 C 60.613281 44.894531 61.398438 45.417969 62.3125 45.75 C 63.296875 46.105469 64.308594 46.277344 65.355469 46.261719 C 66.308594 46.269531 67.238281 46.132812 68.152344 45.855469 C 69.007812 45.59375 69.796875 45.199219 70.523438 44.667969 C 71.214844 44.160156 71.792969 43.542969 72.257812 42.820312 C 72.726562 42.082031 73.039062 41.285156 73.195312 40.425781 L 68.828125 40.425781 C 68.722656 41.21875 68.339844 41.839844 67.6875 42.289062 C 67.019531 42.738281 66.289062 42.949219 65.492188 42.929688 C 64.648438 42.929688 63.925781 42.535156 63.320312 41.742188 C 62.710938 40.949219 62.449219 39.726562 62.535156 38.070312 C 62.554688 37.363281 62.683594 36.675781 62.914062 36.007812 C 63.085938 35.503906 63.351562 35.050781 63.703125 34.652344 C 64.011719 34.316406 64.378906 34.074219 64.808594 33.921875 C 65.234375 33.777344 65.671875 33.707031 66.117188 33.707031 C 66.875 33.679688 67.554688 33.902344 68.15625 34.367188 C 68.730469 34.839844 69.039062 35.445312 69.089844 36.191406 Z M 56.785156 30.804688 L 47.773438 30.804688 L 48.027344 27.972656 L 43.707031 27.972656 L 42.960938 40.253906 C 42.914062 41.042969 43 41.8125 43.21875 42.566406 C 43.429688 43.292969 43.792969 43.933594 44.304688 44.484375 C 44.878906 45.074219 45.546875 45.515625 46.316406 45.804688 C 47.292969 46.15625 48.296875 46.320312 49.335938 46.289062 C 50.371094 46.308594 51.375 46.144531 52.347656 45.796875 C 53.152344 45.5 53.867188 45.058594 54.492188 44.472656 C 55.058594 43.929688 55.488281 43.289062 55.78125 42.558594 C 56.074219 41.828125 56.242188 41.066406 56.28125 40.28125 L 56.503906 35.957031 L 52.476562 35.957031 L 52.277344 39.886719 C 52.226562 40.832031 51.988281 41.554688 51.554688 42.0625 C 51.125 42.570312 50.476562 42.824219 49.617188 42.824219 C 48.734375 42.824219 48.117188 42.566406 47.761719 42.046875 C 47.40625 41.53125 47.253906 40.796875 47.304688 39.851562 L 47.625 33.644531 L 56.640625 33.644531 L 56.789062 30.808594 Z M 41.308594 39.390625 C 41.617188 33.402344 39.203125 30.410156 34.0625 30.410156 C 31.515625 30.410156 29.519531 31.101562 28.074219 32.488281 C 26.632812 33.875 25.847656 35.734375 25.722656 38.070312 C 25.4375 43.53125 28.035156 46.261719 33.515625 46.261719 C 35.175781 46.296875 36.710938 45.878906 38.125 45.003906 C 39.480469 44.144531 40.429688 42.957031 40.976562 41.4375 L 36.507812 41.4375 C 36.277344 41.984375 35.898438 42.382812 35.363281 42.636719 C 34.769531 42.949219 34.136719 43.097656 33.464844 43.089844 C 32.382812 43.089844 31.535156 42.753906 30.921875 42.078125 C 30.308594 41.402344 29.996094 40.507812 29.984375 39.394531 L 41.296875 39.394531 Z M 36.960938 36.878906 L 30.257812 36.878906 C 30.410156 35.820312 30.8125 35.007812 31.464844 34.433594 C 32.125 33.847656 32.898438 33.5625 33.777344 33.578125 C 34.628906 33.5625 35.378906 33.832031 36.027344 34.386719 C 36.660156 34.925781 36.96875 35.757812 36.957031 36.882812 Z M 24.101562 35.425781 C 24.15625 34.683594 24.054688 33.960938 23.796875 33.261719 C 23.574219 32.65625 23.222656 32.132812 22.75 31.695312 C 22.261719 31.257812 21.710938 30.9375 21.089844 30.734375 C 20.390625 30.507812 19.671875 30.398438 18.933594 30.40625 C 17.617188 30.40625 16.523438 30.632812 15.648438 31.082031 C 14.765625 31.53125 14.054688 32.175781 13.511719 33.011719 L 13.628906 30.796875 L 9.484375 30.796875 L 8.699219 45.859375 L 13.023438 45.859375 L 13.472656 37.242188 C 13.59375 34.933594 14.785156 33.777344 17.042969 33.773438 C 18.078125 33.773438 18.792969 33.976562 19.195312 34.382812 C 19.59375 34.789062 19.765625 35.574219 19.703125 36.742188 L 19.226562 45.855469 L 23.554688 45.855469 L 24.097656 35.421875 Z M 24.101562 35.425781"/></g><path d="M 47.90625 56.828125 L 47.246094 55.21875 L 43.925781 55.21875 L 43.265625 56.828125 L 42.9375 56.828125 L 45.414062 50.824219 L 45.753906 50.824219 L 48.234375 56.820312 L 47.90625 56.820312 Z M 45.585938 51.15625 L 44.035156 54.941406 L 47.140625 54.941406 Z M 45.585938 51.15625"/><path d="M 50.859375 53.835938 C 50.859375 51.980469 52.242188 50.734375 54.035156 50.734375 C 54.550781 50.71875 55.035156 50.84375 55.484375 51.105469 C 55.929688 51.371094 56.273438 51.734375 56.515625 52.199219 L 55.425781 52.738281 C 55.289062 52.476562 55.097656 52.265625 54.847656 52.109375 C 54.597656 51.953125 54.324219 51.871094 54.03125 51.863281 C 52.941406 51.863281 52.160156 52.699219 52.160156 53.832031 C 52.160156 54.964844 52.945312 55.800781 54.03125 55.800781 C 54.324219 55.792969 54.597656 55.714844 54.847656 55.554688 C 55.097656 55.398438 55.289062 55.191406 55.425781 54.929688 L 56.515625 55.457031 C 56.273438 55.921875 55.929688 56.285156 55.484375 56.550781 C 55.035156 56.816406 54.550781 56.945312 54.035156 56.933594 C 52.242188 56.933594 50.859375 55.683594 50.859375 53.835938 Z M 50.859375 53.835938"/><path d="M 56.878906 54.652344 C 56.867188 54.347656 56.917969 54.050781 57.03125 53.765625 C 57.144531 53.480469 57.308594 53.230469 57.523438 53.015625 C 57.738281 52.800781 57.988281 52.636719 58.273438 52.523438 C 58.558594 52.414062 58.851562 52.367188 59.15625 52.378906 C 60.582031 52.378906 61.4375 53.421875 61.4375 54.652344 C 61.4375 54.957031 61.378906 55.25 61.261719 55.53125 C 61.148438 55.8125 60.984375 56.058594 60.769531 56.273438 C 60.554688 56.488281 60.308594 56.65625 60.03125 56.769531 C 59.75 56.886719 59.460938 56.945312 59.160156 56.945312 C 58.855469 56.945312 58.566406 56.886719 58.285156 56.769531 C 58.007812 56.65625 57.761719 56.488281 57.546875 56.273438 C 57.335938 56.058594 57.167969 55.8125 57.054688 55.53125 C 56.9375 55.25 56.878906 54.957031 56.878906 54.652344 Z M 60.261719 54.652344 C 60.261719 53.976562 59.859375 53.394531 59.15625 53.394531 C 58.453125 53.394531 58.058594 53.976562 58.058594 54.652344 C 58.058594 55.328125 58.460938 55.921875 59.15625 55.921875 C 59.851562 55.921875 60.261719 55.335938 60.261719 54.652344 Z M 60.261719 54.652344"/><g clip-path="url(#c)"><path d="M 62.109375 57.941406 L 62.617188 57.132812 C 62.988281 57.515625 63.433594 57.691406 63.964844 57.664062 C 64.507812 57.664062 65.160156 57.429688 65.160156 56.550781 L 65.160156 56.125 C 64.824219 56.574219 64.378906 56.800781 63.820312 56.800781 C 62.75 56.800781 61.921875 56.046875 61.921875 54.597656 C 61.921875 53.148438 62.722656 52.386719 63.820312 52.386719 C 64.378906 52.382812 64.824219 52.601562 65.160156 53.054688 L 65.160156 52.484375 L 66.292969 52.484375 L 66.292969 56.535156 C 66.292969 58.179688 65.027344 58.585938 63.964844 58.585938 C 63.261719 58.621094 62.640625 58.40625 62.109375 57.941406 Z M 65.160156 55.28125 L 65.160156 53.863281 C 64.910156 53.546875 64.585938 53.386719 64.1875 53.378906 C 63.535156 53.378906 63.089844 53.828125 63.089844 54.570312 C 63.089844 55.316406 63.535156 55.765625 64.1875 55.765625 C 64.585938 55.757812 64.910156 55.59375 65.160156 55.28125 Z M 65.160156 55.28125"/></g><path d="M 70.238281 56.828125 L 70.238281 54.195312 C 70.238281 53.585938 69.925781 53.386719 69.433594 53.386719 C 69.023438 53.394531 68.699219 53.5625 68.453125 53.890625 L 68.453125 56.820312 L 67.316406 56.820312 L 67.316406 52.484375 L 68.453125 52.484375 L 68.453125 53.054688 C 68.855469 52.605469 69.359375 52.382812 69.960938 52.386719 C 70.914062 52.386719 71.367188 52.925781 71.367188 53.773438 L 71.367188 56.835938 L 70.238281 56.835938 Z M 70.238281 56.828125"/><path d="M 72.296875 51.335938 C 72.296875 51.148438 72.363281 50.988281 72.492188 50.855469 C 72.625 50.722656 72.785156 50.65625 72.96875 50.65625 C 73.15625 50.65625 73.3125 50.722656 73.445312 50.855469 C 73.578125 50.988281 73.644531 51.148438 73.644531 51.335938 C 73.644531 51.523438 73.578125 51.683594 73.445312 51.816406 C 73.3125 51.949219 73.15625 52.015625 72.96875 52.015625 C 72.785156 52.015625 72.625 51.949219 72.492188 51.816406 C 72.363281 51.683594 72.296875 51.523438 72.296875 51.335938 Z M 72.402344 56.828125 L 72.402344 52.484375 L 73.535156 52.484375 L 73.535156 56.828125 Z M 72.402344 56.828125"/><path d="M 74.382812 56.828125 L 74.382812 55.972656 L 76.328125 53.480469 L 74.382812 53.480469 L 74.382812 52.484375 L 77.875 52.484375 L 77.875 53.296875 L 75.890625 55.820312 L 77.902344 55.820312 L 77.902344 56.820312 L 74.382812 56.820312 Z M 74.382812 56.828125"/><path d="M 81.34375 56.828125 L 81.34375 56.371094 C 80.972656 56.769531 80.519531 56.960938 79.976562 56.9375 C 79.289062 56.9375 78.488281 56.46875 78.488281 55.5 C 78.488281 54.472656 79.292969 54.097656 79.976562 54.097656 C 80.558594 54.097656 81.058594 54.285156 81.34375 54.625 L 81.34375 54.078125 C 81.34375 53.636719 80.96875 53.347656 80.394531 53.347656 C 79.914062 53.351562 79.5 53.523438 79.15625 53.859375 L 78.710938 53.050781 C 79.25 52.578125 79.878906 52.351562 80.59375 52.367188 C 81.582031 52.367188 82.484375 52.773438 82.484375 54.011719 L 82.484375 56.816406 L 81.34375 56.816406 Z M 81.34375 55.785156 L 81.34375 55.246094 C 81.101562 54.96875 80.796875 54.839844 80.433594 54.859375 C 79.984375 54.859375 79.628906 55.101562 79.628906 55.515625 C 79.628906 55.929688 79.992188 56.164062 80.433594 56.164062 C 80.796875 56.183594 81.097656 56.058594 81.34375 55.785156 Z M 81.34375 55.785156"/><path d="M 86.417969 56.828125 L 86.417969 54.195312 C 86.417969 53.585938 86.109375 53.386719 85.613281 53.386719 C 85.207031 53.394531 84.878906 53.5625 84.632812 53.890625 L 84.632812 56.820312 L 83.5 56.820312 L 83.5 52.484375 L 84.632812 52.484375 L 84.632812 53.054688 C 85.039062 52.605469 85.539062 52.382812 86.140625 52.386719 C 87.097656 52.386719 87.546875 52.925781 87.546875 53.773438 L 87.546875 56.835938 L 86.40625 56.835938 Z M 86.417969 56.828125"/><path d="M 88.820312 55.738281 L 88.820312 53.484375 L 88.105469 53.484375 L 88.105469 52.484375 L 88.820312 52.484375 L 88.820312 51.300781 L 89.953125 51.300781 L 89.953125 52.484375 L 90.828125 52.484375 L 90.828125 53.484375 L 89.953125 53.484375 L 89.953125 55.433594 C 89.953125 55.714844 90.09375 55.921875 90.355469 55.921875 C 90.507812 55.929688 90.640625 55.882812 90.757812 55.785156 L 90.996094 56.65625 C 90.714844 56.867188 90.402344 56.960938 90.050781 56.9375 C 89.238281 56.933594 88.820312 56.519531 88.820312 55.738281 Z M 88.820312 55.738281"/><path d="M 93.75 56.828125 L 93.75 50.824219 L 96.097656 50.824219 C 97.964844 50.824219 99.257812 52.019531 99.257812 53.820312 C 99.257812 55.617188 97.964844 56.820312 96.109375 56.820312 L 93.75 56.820312 Z M 97.972656 53.824219 C 97.972656 52.773438 97.328125 51.957031 96.117188 51.957031 L 95.027344 51.957031 L 95.027344 55.703125 L 96.105469 55.703125 C 97.269531 55.703125 97.957031 54.847656 97.957031 53.824219 Z M 97.972656 53.824219"/><path d="M 99.925781 51.335938 C 99.925781 51.148438 99.992188 50.988281 100.125 50.855469 C 100.253906 50.722656 100.414062 50.65625 100.601562 50.65625 C 100.785156 50.65625 100.945312 50.722656 101.074219 50.855469 C 101.207031 50.988281 101.273438 51.148438 101.273438 51.335938 C 101.273438 51.523438 101.207031 51.683594 101.074219 51.816406 C 100.945312 51.949219 100.785156 52.015625 100.601562 52.015625 C 100.414062 52.015625 100.253906 51.949219 100.125 51.816406 C 99.992188 51.683594 99.925781 51.523438 99.925781 51.335938 Z M 100.035156 56.828125 L 100.035156 52.484375 L 101.167969 52.484375 L 101.167969 56.828125 Z M 100.035156 56.828125"/><g clip-path="url(#d)"><path d="M 102.109375 57.941406 L 102.621094 57.132812 C 102.988281 57.515625 103.4375 57.691406 103.964844 57.664062 C 104.511719 57.664062 105.164062 57.429688 105.164062 56.550781 L 105.164062 56.125 C 104.828125 56.574219 104.382812 56.800781 103.824219 56.800781 C 102.753906 56.800781 101.921875 56.046875 101.921875 54.597656 C 101.921875 53.148438 102.726562 52.386719 103.824219 52.386719 C 104.382812 52.382812 104.828125 52.601562 105.164062 53.054688 L 105.164062 52.484375 L 106.296875 52.484375 L 106.296875 56.535156 C 106.296875 58.179688 105.03125 58.585938 103.964844 58.585938 C 103.261719 58.621094 102.644531 58.40625 102.109375 57.941406 Z M 105.164062 55.28125 L 105.164062 53.863281 C 104.914062 53.546875 104.589844 53.386719 104.191406 53.378906 C 103.539062 53.378906 103.09375 53.828125 103.09375 54.570312 C 103.09375 55.316406 103.539062 55.765625 104.191406 55.765625 C 104.589844 55.757812 104.914062 55.59375 105.164062 55.28125 Z M 105.164062 55.28125"/></g><path d="M 107.214844 51.335938 C 107.214844 51.148438 107.28125 50.988281 107.414062 50.855469 C 107.542969 50.722656 107.703125 50.65625 107.890625 50.65625 C 108.074219 50.65625 108.234375 50.722656 108.367188 50.855469 C 108.496094 50.988281 108.5625 51.148438 108.5625 51.335938 C 108.5625 51.523438 108.496094 51.683594 108.367188 51.816406 C 108.234375 51.949219 108.074219 52.015625 107.890625 52.015625 C 107.703125 52.015625 107.542969 51.949219 107.414062 51.816406 C 107.28125 51.683594 107.214844 51.523438 107.214844 51.335938 Z M 107.324219 56.828125 L 107.324219 52.484375 L 108.457031 52.484375 L 108.457031 56.828125 Z M 107.324219 56.828125"/><path d="M 109.730469 55.738281 L 109.730469 53.484375 L 109.023438 53.484375 L 109.023438 52.484375 L 109.738281 52.484375 L 109.738281 51.300781 L 110.871094 51.300781 L 110.871094 52.484375 L 111.746094 52.484375 L 111.746094 53.484375 L 110.871094 53.484375 L 110.871094 55.433594 C 110.871094 55.714844 111.015625 55.921875 111.273438 55.921875 C 111.425781 55.929688 111.558594 55.882812 111.675781 55.785156 L 111.917969 56.65625 C 111.636719 56.867188 111.320312 56.960938 110.96875 56.9375 C 110.148438 56.933594 109.730469 56.519531 109.730469 55.738281 Z M 109.730469 55.738281"/><path d="M 115.011719 56.828125 L 115.011719 56.371094 C 114.644531 56.769531 114.1875 56.960938 113.648438 56.9375 C 112.960938 56.9375 112.15625 56.46875 112.15625 55.5 C 112.15625 54.472656 112.960938 54.097656 113.648438 54.097656 C 114.226562 54.097656 114.726562 54.285156 115.011719 54.625 L 115.011719 54.078125 C 115.011719 53.636719 114.636719 53.347656 114.066406 53.347656 C 113.585938 53.351562 113.171875 53.523438 112.824219 53.859375 L 112.378906 53.050781 C 112.917969 52.578125 113.546875 52.351562 114.261719 52.367188 C 115.253906 52.367188 116.152344 52.773438 116.152344 54.011719 L 116.152344 56.816406 L 115.011719 56.816406 Z M 115.011719 55.785156 L 115.011719 55.246094 C 114.769531 54.96875 114.464844 54.839844 114.101562 54.859375 C 113.65625 54.859375 113.296875 55.101562 113.296875 55.515625 C 113.296875 55.929688 113.664062 56.164062 114.101562 56.164062 C 114.464844 56.183594 114.769531 56.058594 115.011719 55.785156 Z M 115.011719 55.785156"/><path d="M 117.179688 56.828125 L 117.179688 50.824219 L 118.3125 50.824219 L 118.3125 56.820312 L 117.179688 56.820312 Z M 117.179688 56.828125"/><path d="M 121.578125 56.828125 L 121.578125 50.824219 L 124.699219 50.824219 C 125.835938 50.824219 126.414062 51.554688 126.414062 52.355469 C 126.429688 52.679688 126.34375 52.972656 126.148438 53.230469 C 125.953125 53.488281 125.699219 53.65625 125.386719 53.730469 C 125.730469 53.800781 126.007812 53.972656 126.222656 54.25 C 126.441406 54.527344 126.542969 54.84375 126.527344 55.195312 C 126.527344 56.101562 125.9375 56.816406 124.796875 56.816406 L 121.578125 56.816406 Z M 125.128906 52.574219 C 125.128906 52.207031 124.863281 51.945312 124.433594 51.945312 L 122.847656 51.945312 L 122.847656 53.203125 L 124.433594 53.203125 C 124.863281 53.214844 125.128906 52.972656 125.128906 52.585938 Z M 125.246094 55.003906 C 125.246094 54.628906 124.976562 54.324219 124.488281 54.324219 L 122.847656 54.324219 L 122.847656 55.6875 L 124.488281 55.6875 C 124.960938 55.703125 125.246094 55.453125 125.246094 55.019531 Z M 125.246094 55.003906"/><path d="M 130.285156 56.828125 L 130.285156 56.277344 C 129.875 56.722656 129.371094 56.941406 128.769531 56.933594 C 127.820312 56.933594 127.375 56.410156 127.375 55.566406 L 127.375 52.484375 L 128.519531 52.484375 L 128.519531 55.117188 C 128.519531 55.726562 128.832031 55.929688 129.324219 55.929688 C 129.730469 55.921875 130.054688 55.757812 130.304688 55.433594 L 130.304688 52.484375 L 131.4375 52.484375 L 131.4375 56.828125 Z M 130.285156 56.828125"/><path d="M 132.078125 56.261719 L 132.570312 55.433594 C 132.996094 55.8125 133.492188 56.011719 134.058594 56.042969 C 134.550781 56.042969 134.78125 55.851562 134.78125 55.582031 C 134.78125 54.875 132.230469 55.457031 132.230469 53.75 C 132.230469 53.019531 132.855469 52.382812 133.996094 52.382812 C 134.640625 52.375 135.21875 52.574219 135.726562 52.976562 L 135.273438 53.785156 C 134.914062 53.449219 134.488281 53.28125 133.996094 53.28125 C 133.59375 53.28125 133.320312 53.460938 133.320312 53.707031 C 133.320312 54.34375 135.878906 53.804688 135.878906 55.558594 C 135.878906 56.367188 135.203125 56.941406 134.007812 56.941406 C 133.277344 56.957031 132.636719 56.730469 132.078125 56.261719 Z M 132.078125 56.261719"/><path d="M 136.511719 51.335938 C 136.511719 51.148438 136.578125 50.988281 136.710938 50.855469 C 136.839844 50.722656 137 50.65625 137.1875 50.65625 C 137.371094 50.65625 137.53125 50.722656 137.660156 50.855469 C 137.792969 50.988281 137.859375 51.148438 137.859375 51.335938 C 137.859375 51.523438 137.792969 51.683594 137.660156 51.816406 C 137.53125 51.949219 137.371094 52.015625 137.1875 52.015625 C 137 52.015625 136.839844 51.949219 136.710938 51.816406 C 136.578125 51.683594 136.511719 51.523438 136.511719 51.335938 Z M 136.617188 56.828125 L 136.617188 52.484375 L 137.753906 52.484375 L 137.753906 56.828125 Z M 136.617188 56.828125"/><path d="M 141.695312 56.828125 L 141.695312 54.195312 C 141.695312 53.585938 141.382812 53.386719 140.890625 53.386719 C 140.484375 53.394531 140.15625 53.5625 139.910156 53.890625 L 139.910156 56.820312 L 138.777344 56.820312 L 138.777344 52.484375 L 139.910156 52.484375 L 139.910156 53.054688 C 140.316406 52.605469 140.816406 52.382812 141.417969 52.386719 C 142.371094 52.386719 142.824219 52.925781 142.824219 53.773438 L 142.824219 56.835938 L 141.683594 56.835938 Z M 141.695312 56.828125"/><path d="M 143.59375 54.652344 C 143.585938 54.351562 143.636719 54.058594 143.746094 53.78125 C 143.855469 53.5 144.015625 53.25 144.226562 53.035156 C 144.4375 52.820312 144.679688 52.65625 144.957031 52.542969 C 145.234375 52.429688 145.523438 52.375 145.824219 52.378906 C 147.117188 52.378906 147.980469 53.347656 147.980469 54.761719 L 147.980469 55.027344 L 144.773438 55.027344 C 144.855469 55.558594 145.28125 56 146.015625 56 C 146.445312 55.996094 146.824219 55.855469 147.15625 55.574219 L 147.664062 56.332031 C 147.148438 56.753906 146.554688 56.957031 145.890625 56.9375 C 144.578125 56.933594 143.59375 56.046875 143.59375 54.652344 Z M 145.824219 53.3125 C 145.550781 53.296875 145.3125 53.378906 145.109375 53.558594 C 144.902344 53.738281 144.789062 53.964844 144.769531 54.238281 L 146.890625 54.238281 C 146.851562 53.824219 146.566406 53.3125 145.816406 53.3125 Z M 145.824219 53.3125"/><path d="M 148.332031 56.261719 L 148.824219 55.433594 C 149.25 55.8125 149.746094 56.011719 150.3125 56.042969 C 150.804688 56.042969 151.035156 55.851562 151.035156 55.582031 C 151.035156 54.875 148.484375 55.457031 148.484375 53.75 C 148.484375 53.019531 149.109375 52.382812 150.25 52.382812 C 150.898438 52.375 151.472656 52.574219 151.980469 52.976562 L 151.527344 53.785156 C 151.167969 53.449219 150.742188 53.28125 150.25 53.28125 C 149.847656 53.28125 149.574219 53.460938 149.574219 53.707031 C 149.574219 54.34375 152.132812 53.804688 152.132812 55.558594 C 152.132812 56.367188 151.457031 56.941406 150.261719 56.941406 C 149.535156 56.957031 148.890625 56.730469 148.332031 56.261719 Z M 148.332031 56.261719"/><g clip-path="url(#e)"><path d="M 152.5 56.261719 L 152.992188 55.433594 C 153.417969 55.8125 153.914062 56.011719 154.480469 56.042969 C 154.96875 56.042969 155.203125 55.851562 155.203125 55.582031 C 155.203125 54.875 152.652344 55.457031 152.652344 53.75 C 152.652344 53.019531 153.277344 52.382812 154.417969 52.382812 C 155.0625 52.375 155.640625 52.574219 156.148438 52.976562 L 155.695312 53.785156 C 155.335938 53.449219 154.910156 53.28125 154.417969 53.28125 C 154.015625 53.28125 153.738281 53.460938 153.738281 53.707031 C 153.738281 54.34375 156.300781 53.804688 156.300781 55.558594 C 156.300781 56.367188 155.625 56.941406 154.425781 56.941406 C 153.699219 56.957031 153.058594 56.730469 152.5 56.261719 Z M 152.5 56.261719"/></g></svg>